<?xml version="1.0" encoding="utf-8"?>
<!-- Generator: Adobe Illustrator 21.1.0, SVG Export Plug-In . SVG Version: 6.00 Build 0)  -->
<svg version="1.1" id="Capa_1" xmlns="http://www.w3.org/2000/svg" xmlns:xlink="http://www.w3.org/1999/xlink" x="0px" y="0px"
	 viewBox="0 0 512 512" style="enable-background:new 0 0 512 512;" xml:space="preserve">
<style type="text/css">
	.st0{fill:#FFFFFF;}
</style>
<g>
	<g>
		<path class="st0" d="M320,384c106,0,192-86,192-192S426,0,320,0C214,0,128,86,128,192S214,384,320,384z M176,192
			c0-79.4,64.6-144,144-144c79.4,0,144,64.6,144,144s-64.6,144-144,144C240.6,336,176,271.4,176,192z"/>
		<path class="st0" d="M14.1,497.9c18.7,18.7,49.1,18.7,67.9,0l117.5-117.5c-27.2-17.5-50.4-40.7-67.9-67.9L14.1,430.1
			C-4.7,448.8-4.7,479.2,14.1,497.9z"/>
	</g>
</g>
</svg>
